{"title":"The Arrow [1997] DVDrip Supersonic Canadian fighter (Dan Aykroyd","uid":4005679,"size":1466138624,"categoryP":"video","categoryS":"movies","magnet":"?xt=urn:btih:7be803f5ecee9109a1f96d84c4b1cb3a77c53bc2&amp;dn=The+Arrow+%5B1997%5D+DVDrip+Supersonic+Canadian+fighter+%28Dan+Aykroyd&amp;tr=udp%3A%2F%2Ftracker.openbittorrent.com%3A80&amp;tr=udp%3A%2F%2Fopen.demonii.com%3A1337&amp;tr=udp%3A%2F%2Ftracker.coppersurfer.tk%3A6969&amp;tr=udp%3A%2F%2Fexodus.desync.com%3A6969","seeders":0,"leechers":0,"uploader":"Kuthumi","files":-1,"time":1201813153,"description":"True story of how Canada built one of the world's most advanced supersonic fighter planes, already back in the 1950s. When finished, the project was suddenly cancelled due to political changes.\n\nThis is the full 3 hours dramatized documentary with lots of interesting details about construction of airplanes and jet engines, including authentic historic footage. I had to order the DVD from Canada.\n\nGood stereo sound, original fullscreen. DVDrip XviD 2-pass-\nBurn tested, runs well in my divX player. &lt;a href=&quot;\nhttp://www.imdb.com/title/tt0118641/&quot; rel=&quot;nofollow&quot; target=&quot;_NEW&quot;&gt;\nhttp://www.imdb.com/title/tt0118641/&lt;/a&gt;\n\nMediaInfo analysis:\nFormat/Info                      : Audio Video Interleave\nFile size                        : 1.37 GiB\nDuration                         : 2h 53mn\nOveral bit rate                  : 1125 Kbps\n\nVideo\nFormat                           : MPEG-4 Visual\nFormat profile                   : Streaming Video@L1\nFormat settings, BVOP            : Yes\nFormat settings, QPel            : No\nFormat settings, GMC             : No warppoints\nFormat settings, Matrix          : Default\nMuxing mode                      : Packet Bitstream\nCodec ID                         : XVID\nCodec ID/Hint                    : XviD\nDuration                         : 2h 53mn\nBit rate                         : 988 Kbps\nWidth                            : 512 pixels\nHeight                           : 368 pixels\nDisplay aspect ratio             : 1.391\nFrame rate                       : 23.976 fps\nResolution                       : 8 bits\nColorimetry                      : 4:2:0\nScan type                        : Progressive\nBits/(Pixel*Frame)               : 0.219\nStream size                      : 1.20 GiB\nWriting library                  : XviD 1.2.0.dev47 (UTC 2006-11-01)\n\nAudio\nFormat                           : MPEG Audio\nFormat version                   : Version 1\nFormat profile                   : Layer 3\nCodec ID                         : 55\nCodec ID/Hint                    : MP3\nDuration                         : 2h 53mn\nBit rate mode                    : Constant\nBit rate                         : 128 Kbps\nMinimum bit rate                 : 128 Kbps\nChannel(s)                       : 2 channels\nSampling rate                    : 48.0 KHz\nResolution                       : 16 bits\nStream size                      : 159 MiB\nWriting library                  : LAME3.97b\nEncoding settings                : CBR","torrent":{"xt":"urn:btih:7be803f5ecee9109a1f96d84c4b1cb3a77c53bc2","amp;dn":"The+Arrow+%5B1997%5D+DVDrip+Supersonic+Canadian+fighter+%28Dan+Aykroyd","amp;tr":["udp%3A%2F%2Ftracker.openbittorrent.com%3A80","udp%3A%2F%2Fopen.demonii.com%3A1337","udp%3A%2F%2Ftracker.coppersurfer.tk%3A6969","udp%3A%2F%2Fexodus.desync.com%3A6969"],"infoHash":"7be803f5ecee9109a1f96d84c4b1cb3a77c53bc2","infoHashBuffer":{"type":"Buffer","data":[123,232,3,245,236,238,145,9,161,249,109,132,196,177,203,58,119,197,59,194]},"announce":[],"urlList":[]}}